<?xml version="1.0" encoding="UTF-8"?> <svg xmlns="http://www.w3.org/2000/svg" width="212" height="39" viewBox="0 0 212 39" fill="none"><g clip-path="url(#clip0_140_861)"><path d="M46.5692 17.3121C46.4337 17.6331 46.3463 17.9718 46.3099 18.3175C46.3099 18.6149 46.4539 18.7565 46.7925 18.7919C47.0158 18.8344 47.1743 18.8344 47.3183 18.8556C47.4624 18.8769 47.6425 18.9335 47.6425 19.0114C47.6425 19.0893 47.5128 19.1672 47.3039 19.1672C46.5836 19.1672 46.0434 19.1176 45.1934 19.1176C45.0133 19.1176 43.9616 19.1672 43.162 19.1672C42.9387 19.1672 42.8379 19.1035 42.8379 19.0114C42.8379 18.9194 42.9531 18.8556 43.126 18.8556C43.2989 18.8556 43.4934 18.8202 43.6591 18.7919C44.2137 18.6786 44.5379 18.1901 44.8692 17.4395L49.148 7.93735C49.4505 7.22929 49.645 7.02395 49.8179 7.02395C49.9908 7.02395 50.106 7.24345 50.3797 7.8099C50.7903 8.68789 53.4844 14.7135 54.572 17.1067C55.1123 18.3317 55.4653 18.714 56.0127 18.7919C56.1819 18.8219 56.3527 18.8431 56.5241 18.8556C56.733 18.8556 56.8267 18.9194 56.8267 19.0114C56.8267 19.1035 56.7186 19.1672 56.4161 19.1672C54.8458 19.1672 53.0377 19.1672 52.0149 19.1176C51.77 19.1176 51.6475 19.0751 51.6475 18.976C51.6475 18.8769 51.7268 18.8202 51.8708 18.7919C52.0149 18.7636 52.1085 18.6503 52.0581 18.5087L49.0471 11.329C49.0039 11.2157 48.9679 11.244 48.9391 11.329L46.5692 17.3121Z" fill="url(#paint0_linear_140_861)"></path><path d="M60.2627 15.9101C60.1834 15.9101 60.1546 15.9455 60.1186 16.0234L59.6216 17.3121C59.4878 17.6333 59.4029 17.972 59.3694 18.3175C59.3694 18.6149 59.5135 18.7565 59.8449 18.7919C60.0249 18.7919 60.2843 18.8344 60.4067 18.8556C60.6516 18.8556 60.6949 18.9335 60.6949 19.0114C60.6949 19.0893 60.5652 19.1672 60.3635 19.1672C59.6432 19.1672 59.0957 19.1176 58.2457 19.1176C58.0729 19.1176 57.014 19.1672 56.2144 19.1672C55.9911 19.1672 55.8975 19.1035 55.8975 19.0114C55.8975 18.9194 56.0055 18.8556 56.2 18.8556C56.3945 18.8556 56.553 18.8202 56.7114 18.7919C57.2733 18.6786 57.5902 18.1901 57.9288 17.4395L62.2003 7.93735C62.5029 7.22929 62.683 7.02395 62.8558 7.02395C63.0287 7.02395 63.1584 7.24345 63.4321 7.8099C63.8499 8.68789 66.5367 14.7135 67.6244 17.1067C68.1719 18.3317 68.5248 18.714 69.0651 18.7919C69.2343 18.8219 69.405 18.8431 69.5765 18.8556C69.7782 18.8556 69.879 18.9194 69.879 19.0114C69.879 19.1035 69.7638 19.1672 69.4613 19.1672C67.8909 19.1672 66.0685 19.1672 65.0456 19.1176C64.7863 19.1176 64.6927 19.0751 64.6927 18.976C64.6927 18.8769 64.7719 18.8202 64.916 18.7919C65.06 18.7636 65.1537 18.6503 65.1105 18.5087L64.0588 16.0022C64.0497 15.9754 64.0323 15.9521 64.0091 15.9356C63.9858 15.9191 63.9578 15.9102 63.9291 15.9101H60.2627ZM63.4681 14.6498C63.5618 14.6498 63.5618 14.6073 63.5474 14.5719L62.1067 11.2086C62.0635 11.0953 62.0275 11.1307 61.9986 11.2086L60.6372 14.5719C60.6372 14.6214 60.6372 14.6498 60.702 14.6498H63.4681Z" fill="url(#paint1_linear_140_861)"></path><path d="M73.9273 8.59585V12.037C73.9273 12.1149 73.9273 12.1291 74.0065 12.1291C74.3163 12.1291 74.093 12.1291 74.3307 12.1291C75.7455 12.0383 77.1626 12.2684 78.4726 12.8017C79.0062 13.0498 79.4561 13.4432 79.769 13.9352C80.0818 14.4272 80.2444 14.9972 80.2374 15.5773C80.2374 17.4962 78.7967 19.2168 75.3031 19.2168C74.7269 19.2168 72.7315 19.1318 72.357 19.1318C72.1193 19.1318 70.6498 19.1814 70.1528 19.1814C69.8934 19.1814 69.7494 19.1814 69.7494 19.0256C69.7494 18.8698 69.9295 18.884 70.1023 18.8698C70.2752 18.8556 70.4265 18.8698 70.6138 18.8061C70.9379 18.7282 71.0316 18.3812 71.082 17.921C71.1468 17.2625 71.1756 16.2217 71.1756 14.6214V11.8388C71.1756 9.38179 71.1756 8.9428 71.1252 8.44007C71.0748 7.93735 70.9523 7.73201 70.5706 7.66829C70.3687 7.62777 70.164 7.60174 69.9583 7.5904C69.7494 7.5904 69.6846 7.52667 69.6846 7.43463C69.6846 7.34258 69.771 7.27177 70.0591 7.27177C70.9667 7.27177 71.7879 7.32134 72.4074 7.32134H78.0908C78.3804 7.33182 78.6704 7.31044 78.9552 7.25761C79.0431 7.22425 79.1351 7.20281 79.2289 7.19389C79.3081 7.19389 79.3226 7.25761 79.3226 7.3355C79.3226 7.41338 79.2721 7.64704 79.2289 8.04356C79.1857 8.44007 79.1497 9.12689 79.1137 9.66502C79.1137 9.87036 79.0632 9.93408 78.9696 9.93408C78.8759 9.93408 78.8111 9.82079 78.7967 9.67918C78.7895 9.46937 78.7506 9.26178 78.6815 9.06317C78.5734 8.7233 78.3501 8.58169 77.6082 8.51796C77.0031 8.51796 74.554 8.45423 74.0425 8.45423C73.9417 8.44007 73.9273 8.49672 73.9273 8.59585ZM73.9273 14.494C73.9273 15.3578 73.9273 16.7952 73.9777 17.4679C73.9874 17.5927 74.0288 17.7132 74.098 17.8183C74.1672 17.9234 74.262 18.0098 74.3739 18.0697C74.6762 18.2093 75.0052 18.2841 75.3391 18.2892C76.3908 18.2892 77.2552 17.5811 77.2552 16.1013C77.2956 15.6638 77.2357 15.223 77.0798 14.8112C76.924 14.3995 76.6763 14.0274 76.3548 13.7222C76.0325 13.4541 75.6582 13.2531 75.2546 13.1314C74.8509 13.0097 74.4263 12.9698 74.0065 13.0141C73.9417 13.0141 73.9057 13.0496 73.9057 13.1274L73.9273 14.494Z" fill="url(#paint2_linear_140_861)"></path><path d="M83.3708 11.8388C83.3708 9.27558 83.3708 8.95696 83.3204 8.45423C83.27 7.95151 83.1475 7.74617 82.7441 7.63288C82.6001 7.63288 82.3767 7.63288 82.2183 7.5904C82.0598 7.54792 81.9301 7.51251 81.9301 7.41338C81.9301 7.31426 82.0238 7.27177 82.2831 7.27177C83.1907 7.27177 83.9615 7.32134 84.6674 7.32134H89.1767C89.466 7.32068 89.7549 7.29938 90.041 7.25761C90.1243 7.22531 90.2115 7.20389 90.3004 7.19389C90.3796 7.19389 90.394 7.25761 90.394 7.3355C90.394 7.41338 90.394 7.56916 90.3148 8.04356C90.2643 8.35511 90.2355 8.90739 90.1851 9.72874C90.1851 9.84911 90.1203 9.94824 90.0266 9.94824C89.933 9.94824 89.8826 9.87036 89.8682 9.72874C89.8709 9.54173 89.8442 9.35543 89.7889 9.17646C89.7097 8.81535 89.5008 8.61001 88.73 8.54628C88.2042 8.49672 86.8068 8.4684 86.3314 8.4684C86.2305 8.4684 86.2017 8.51088 86.2017 8.62417V12.037C86.2017 12.1432 86.2017 12.2211 86.3314 12.2211C86.778 12.2211 88.0745 12.2211 88.6508 12.2211C89.436 12.2211 89.6449 12.1432 89.8177 11.86C89.9114 11.7184 89.9618 11.6547 90.041 11.6547C90.1203 11.6547 90.1419 11.7538 90.1419 11.8458C90.1419 11.9379 90.0555 12.5539 90.0122 13.1841C90.0122 13.5452 90.0122 14.317 90.0122 14.4869C90.0122 14.6568 89.9618 14.7843 89.8682 14.7843C89.7745 14.7843 89.7241 14.6781 89.6881 14.5365C89.6521 14.3949 89.6881 14.3028 89.6377 14.1754C89.58 13.7151 89.3495 13.4673 88.5716 13.4036C88.1178 13.3682 86.8068 13.3399 86.3097 13.3399C86.2305 13.3399 86.2161 13.4177 86.2161 13.5452V14.6285C86.2161 15.1667 86.2161 16.0942 86.2161 16.689C86.2161 17.7936 86.4538 18.0414 88.233 18.0414C88.737 18.062 89.241 17.9998 89.7241 17.8573C90.1707 17.6803 90.358 17.3333 90.5021 16.6111C90.5021 16.4199 90.6029 16.3279 90.6965 16.3279C90.7902 16.3279 90.8406 16.4836 90.8406 16.6748C90.8178 17.389 90.731 18.0998 90.5813 18.799C90.4732 19.2097 90.358 19.2238 89.7673 19.2238C87.5631 19.2238 86.3602 19.1247 84.6818 19.1247C83.9255 19.1247 83.2411 19.1743 82.3767 19.1743C82.0886 19.1743 81.9878 19.1247 81.9878 19.0185C81.9878 18.9123 82.067 18.8627 82.3119 18.8627C82.4714 18.8493 82.63 18.8281 82.7873 18.799C83.2411 18.7353 83.306 18.1334 83.3348 17.1421C83.3348 16.519 83.3852 15.5915 83.3852 14.6144L83.3708 11.8388Z" fill="url(#paint3_linear_140_861)"></path><path d="M101.149 7.63288C100.99 7.63288 100.846 7.63288 100.587 7.5904C100.327 7.54792 100.299 7.49127 100.299 7.43463C100.299 7.37798 100.378 7.27177 100.615 7.27177C101.545 7.27177 103 7.32134 103.151 7.32134C103.302 7.32134 105.132 7.27177 105.823 7.27177C106.061 7.27177 106.14 7.3355 106.14 7.43463C106.14 7.53376 106.061 7.5904 105.852 7.60456C105.686 7.60975 105.52 7.62632 105.355 7.65413C104.923 7.73201 104.793 7.96567 104.765 8.48256C104.685 9.14813 104.714 10.3235 104.714 11.8388V14.6073C104.714 15.6127 104.714 16.8872 104.714 17.5316C104.714 17.7228 104.757 17.7652 104.937 17.7652C105.594 17.7697 106.251 17.739 106.904 17.6732C107.048 17.6732 107.084 17.6732 107.048 17.9068C106.886 18.717 106.789 19.5386 106.76 20.3638C106.76 20.7249 106.695 20.8028 106.601 20.8028C106.508 20.8028 106.421 20.6612 106.407 20.4275C106.424 20.2668 106.405 20.1044 106.352 19.9515C106.299 19.7986 106.212 19.659 106.098 19.5424C105.984 19.4258 105.846 19.335 105.693 19.2763C105.54 19.2176 105.375 19.1925 105.211 19.2026C104.793 19.1672 103.771 19.1176 102.279 19.1176H95.2202C95.0762 19.1176 93.3618 19.1672 92.8503 19.1672C92.6775 19.1672 92.5334 19.1672 92.5334 19.0256C92.5334 18.884 92.6126 18.8698 92.8215 18.8556L93.3618 18.7919C93.7291 18.6928 93.83 18.3317 93.8588 17.8644C93.9092 17.1988 93.938 16.1013 93.938 14.6073V11.8671C93.938 9.43136 93.938 8.97112 93.8948 8.4684C93.8516 7.96567 93.7147 7.71785 93.2537 7.63288C93.0509 7.60464 92.8463 7.59045 92.6414 7.5904C92.4037 7.5904 92.3533 7.49127 92.3533 7.41339C92.3533 7.3355 92.4974 7.27177 92.6919 7.27177C93.6211 7.27177 94.8529 7.32134 95.2346 7.32134C95.8469 7.32134 97.1579 7.27177 97.8422 7.27177C98.1303 7.27177 98.2168 7.3355 98.2168 7.43463C98.2168 7.53376 98.1664 7.57624 97.8926 7.5904C97.763 7.5904 97.5541 7.5904 97.3812 7.65413C96.9202 7.73201 96.8554 8.10728 96.8194 8.54628C96.7761 9.21186 96.7761 9.75707 96.7761 11.2723V17.5953C96.7761 17.8148 96.841 17.829 96.949 17.8431C97.3483 17.887 97.7507 17.8988 98.152 17.8785H99.5134C100.954 17.8785 101.509 17.8785 101.754 17.8431C101.778 17.8431 101.802 17.8334 101.82 17.8162C101.837 17.7989 101.847 17.7755 101.847 17.7511V11.6759C101.847 10.1677 101.847 9.08441 101.847 8.44007C101.861 8.24244 101.796 8.04728 101.665 7.89639C101.535 7.74551 101.349 7.65092 101.149 7.63288Z" fill="url(#paint4_linear_140_861)"></path><path d="M112.523 12.7805C113.401 11.9804 114.683 10.6563 115.98 9.24018C116.506 8.63833 116.808 8.19933 116.808 7.95151C116.808 7.70369 116.744 7.68245 116.362 7.60456C116.218 7.60456 116.088 7.555 116.088 7.44879C116.088 7.34258 116.167 7.30718 116.347 7.30718C117.068 7.30718 117.133 7.30718 118.04 7.30718C118.948 7.30718 120.136 7.30718 120.345 7.30718C120.554 7.30718 120.684 7.30718 120.684 7.44879C120.684 7.5904 120.605 7.5904 120.396 7.60456C120.202 7.62145 120.009 7.65221 119.819 7.69661C119.009 7.93622 118.29 8.40691 117.752 9.04901C117.032 9.75707 115.209 11.5839 114.792 12.0229C116.135 13.8359 117.578 15.5756 119.114 17.2342C119.6 17.7866 120.168 18.2639 120.799 18.6503C121.027 18.7558 121.27 18.8251 121.519 18.8556C121.743 18.8556 121.858 18.8981 121.858 19.0256C121.858 19.153 121.714 19.1672 121.534 19.1672H119.964C117.853 19.1672 117.082 18.9619 116.304 18.0839C114.939 16.5366 113.667 14.9124 112.494 13.2195V14.6356C112.494 15.8606 112.494 17.2908 112.573 17.9564C112.573 18.3458 112.717 18.7424 113.293 18.8202C113.517 18.8202 113.769 18.8627 113.978 18.884C114.186 18.9052 114.251 18.9619 114.251 19.0397C114.251 19.1176 114.186 19.1955 113.949 19.1955C112.89 19.1955 111.175 19.146 111.031 19.146C110.887 19.146 109.13 19.1955 108.604 19.1955C108.395 19.1955 108.28 19.1955 108.28 19.0397C108.28 18.884 108.395 18.884 108.568 18.884C108.741 18.884 108.885 18.884 109.065 18.8344C109.562 18.7565 109.612 18.3812 109.656 17.921C109.72 17.2625 109.749 16.1579 109.749 14.6356V11.8388C109.749 9.39595 109.749 8.95696 109.706 8.45423C109.663 7.95151 109.497 7.74617 109.115 7.65413C108.913 7.6197 108.708 7.59841 108.503 7.5904C108.294 7.5904 108.172 7.555 108.172 7.41339C108.172 7.27177 108.294 7.27177 108.604 7.27177C109.288 7.27177 110.923 7.32134 111.031 7.32134C111.139 7.32134 113.113 7.27177 113.689 7.27177C113.963 7.27177 114.028 7.3355 114.028 7.41339C114.028 7.49127 113.949 7.57624 113.74 7.5904C113.531 7.60456 113.495 7.5904 113.257 7.63288C112.695 7.71785 112.602 8.07896 112.573 8.58169C112.544 9.08441 112.523 9.39595 112.523 11.8388V12.7805Z" fill="url(#paint5_linear_140_861)"></path><path d="M125.589 15.3791C126.922 13.8992 128.557 12.0087 129.241 11.2228C130.199 10.1394 130.877 9.3818 131.719 8.44007C132.814 7.24345 133.16 7.02395 133.405 7.02395C133.65 7.02395 133.679 7.17973 133.679 8.17101C133.722 11.2865 133.679 14.3736 133.787 17.4749C133.837 18.4662 133.916 18.6503 134.543 18.7778C134.622 18.7778 134.939 18.7778 135.054 18.8273C135.357 18.8698 135.422 18.9052 135.422 18.9831C135.422 19.061 135.307 19.1389 135.054 19.1389C134.428 19.1389 132.137 19.1389 131.755 19.0893C131.085 19.0893 130.315 19.1389 129.738 19.1389C129.479 19.1389 129.357 19.0893 129.357 18.9831C129.357 18.8769 129.465 18.8557 129.738 18.8273C129.897 18.8273 129.998 18.8273 130.156 18.7778C130.747 18.714 130.812 18.3671 130.877 17.3616C130.963 15.6765 130.927 13.0496 130.977 11.0811C130.466 11.683 129.89 12.3415 129.04 13.3186C125.985 16.7598 124.494 18.3812 123.889 18.9335C123.392 19.4079 123.212 19.4504 123.104 19.4504C122.996 19.4504 122.83 19.2026 122.83 18.7424C122.83 16.6677 122.881 12.7805 122.83 9.58713C122.78 8.07896 122.83 7.71785 122.11 7.61872C121.966 7.61872 121.836 7.61872 121.707 7.61872C121.577 7.61872 121.419 7.54084 121.419 7.44171C121.419 7.34258 121.498 7.3001 121.757 7.3001C122.319 7.3001 123.918 7.34966 124.3 7.34966C125.373 7.34966 126.461 7.3001 126.893 7.3001C127.167 7.3001 127.275 7.3355 127.275 7.46295C127.275 7.5904 127.196 7.60456 126.944 7.61872C126.691 7.63288 126.576 7.61872 126.41 7.61872C125.791 7.69661 125.69 8.12145 125.69 9.38179L125.589 15.3791Z" fill="url(#paint6_linear_140_861)"></path><path d="M140.824 15.3791C142.157 13.8992 143.785 12.0087 144.476 11.2228C145.434 10.1394 146.104 9.38179 146.954 8.44007C148.042 7.24345 148.395 7.02395 148.633 7.02395C148.87 7.02395 148.906 7.17972 148.906 8.17101C148.957 11.2865 148.906 14.3736 149.022 17.4749C149.065 18.4662 149.151 18.6503 149.742 18.7778C149.821 18.7778 150.145 18.7778 150.253 18.8273C150.556 18.8698 150.621 18.9052 150.621 18.9831C150.621 19.061 150.513 19.1389 150.253 19.1389C149.634 19.1389 147.372 19.1389 146.961 19.0893C146.284 19.0893 145.521 19.1389 144.945 19.1389C144.685 19.1389 144.556 19.0893 144.556 18.9831C144.556 18.8769 144.671 18.8557 144.945 18.8273C145.103 18.8273 145.197 18.8273 145.355 18.7778C145.953 18.714 146.011 18.3671 146.075 17.3616C146.155 15.6765 146.126 13.0495 146.169 11.0811C145.658 11.683 145.081 12.3415 144.239 13.3186C141.184 16.774 139.744 18.4096 139.095 18.9477C138.598 19.4221 138.426 19.4646 138.31 19.4646C138.195 19.4646 138.044 19.2168 138.044 18.7565C138.044 16.6819 138.087 12.7946 138.044 9.60129C138.001 8.09312 138.044 7.73201 137.323 7.63288C137.191 7.62637 137.059 7.62637 136.927 7.63288C136.733 7.63288 136.639 7.555 136.639 7.45587C136.639 7.35674 136.718 7.31426 136.97 7.31426C137.532 7.31426 139.131 7.36382 139.52 7.36382C140.594 7.36382 141.681 7.31426 142.114 7.31426C142.38 7.31426 142.495 7.34966 142.495 7.47711C142.495 7.60456 142.416 7.61872 142.157 7.63288C141.898 7.64704 141.789 7.63288 141.631 7.63288C141.004 7.71077 140.911 8.13561 140.911 9.39596L140.824 15.3791ZM140.464 4.20587C140.713 3.90015 141.019 3.64316 141.364 3.44824C141.429 3.44824 141.458 3.44824 141.487 3.56153C141.653 4.14214 142.611 4.89977 144.275 4.89977C144.824 4.93002 145.372 4.83001 145.874 4.60819C146.375 4.38637 146.815 4.04925 147.156 3.62526C147.329 3.44824 147.394 3.43408 147.473 3.43408C147.552 3.43408 147.574 3.62526 147.394 3.87308C146.919 4.52824 146.293 5.06272 145.566 5.43216C144.84 5.80159 144.034 5.99532 143.216 5.99726C142.39 6.03406 141.573 5.81351 140.882 5.36709C140.733 5.27674 140.606 5.15599 140.509 5.01304C140.412 4.87009 140.348 4.7083 140.32 4.53866C140.333 4.41606 140.383 4.30013 140.464 4.20587Z" fill="url(#paint7_linear_140_861)"></path><path d="M52.4543 30.3192C52.4682 30.3183 52.4818 30.3147 52.4942 30.3084C52.5067 30.3021 52.5176 30.2934 52.5264 30.2827C52.5352 30.2721 52.5417 30.2597 52.5454 30.2465C52.5491 30.2333 52.5499 30.2194 52.5479 30.2059V29.8731C52.5479 27.4373 52.5479 27.1683 52.5479 26.6656C52.5479 26.1628 52.3822 25.9575 51.8276 25.8301L51.2657 25.7876C51.0424 25.7876 50.9632 25.6884 50.9632 25.6247C50.9632 25.561 51.0424 25.4689 51.2801 25.4689C52.2094 25.4689 53.65 25.5185 53.8157 25.5185C53.9814 25.5185 55.7966 25.4902 56.4881 25.4902C56.7258 25.4902 56.8051 25.5539 56.8051 25.646C56.8051 25.738 56.7258 25.8088 56.5674 25.8088C56.2936 25.8088 56.2 25.8088 56.0055 25.8655C55.5877 25.9292 55.4581 26.1982 55.4148 26.701C55.3716 27.2037 55.3788 27.6144 55.3788 30.0572V32.8257C55.3788 34.3197 55.3788 35.4809 55.4581 36.1394C55.5085 36.6634 55.6381 36.9325 56.1136 37.0103C56.3441 37.0103 56.661 37.0528 56.8339 37.0741C57.0068 37.0953 57.1076 37.1519 57.1076 37.2298C57.1076 37.3077 56.9779 37.3856 56.7907 37.3856C55.6814 37.3856 54.0678 37.336 53.7797 37.336C53.4916 37.336 52.2742 37.3856 51.489 37.3856C51.2009 37.3856 51.1361 37.3077 51.1361 37.2157C51.1361 37.1236 51.2369 37.0741 51.4386 37.0741C51.6403 37.0741 51.7916 37.0741 51.9356 37.0103C52.3246 36.9325 52.4183 36.628 52.4687 36.1253C52.5335 35.4668 52.5623 34.4755 52.5623 32.9815V31.707C52.5633 31.6943 52.5616 31.6816 52.5574 31.6696C52.5531 31.6576 52.5464 31.6466 52.5376 31.6372C52.5288 31.6279 52.5181 31.6205 52.5063 31.6154C52.4944 31.6104 52.4816 31.6078 52.4687 31.6078H47.4552C47.4419 31.6065 47.4286 31.6083 47.4161 31.6129C47.4036 31.6176 47.3924 31.625 47.3834 31.6346C47.3743 31.6442 47.3676 31.6557 47.3638 31.6683C47.3601 31.6808 47.3593 31.6941 47.3616 31.707V33.3426C47.3616 34.8366 47.3616 35.4668 47.4408 36.1748C47.4912 36.628 47.6353 36.9254 48.1179 37.0033C48.4493 37.0528 48.6077 37.067 48.7878 37.0882C48.9679 37.1095 49.0903 37.1307 49.0903 37.244C49.0903 37.3573 49.0111 37.3998 48.7734 37.3998C47.8586 37.3998 45.9713 37.3502 45.8129 37.3502C45.6544 37.3502 43.9832 37.3998 43.4718 37.3998C43.2989 37.3998 43.1188 37.3998 43.1188 37.2582C43.1188 37.1165 43.1837 37.0882 43.3925 37.0882L43.8896 37.0245C44.2713 36.9749 44.4154 36.5643 44.4514 36.0899C44.4946 35.4314 44.5307 34.3339 44.5307 32.8399V30.0643C44.5307 27.6285 44.5307 27.232 44.4802 26.7576C44.4298 26.2832 44.2713 25.9079 43.7167 25.8301C43.5222 25.8301 43.443 25.8301 43.2629 25.7876C42.9748 25.7876 42.9459 25.6884 42.9459 25.6106C42.9459 25.5327 43.1188 25.4689 43.2989 25.4689C44.2281 25.4689 45.4599 25.5185 45.8273 25.5185C46.4323 25.5185 47.7793 25.4689 48.4637 25.4689C48.7518 25.4689 48.8022 25.5327 48.8022 25.6247C48.8022 25.7168 48.7086 25.7876 48.5141 25.7876C48.3196 25.7876 48.1179 25.7876 47.9522 25.8442C47.52 25.9433 47.4408 26.3045 47.412 26.7576C47.3832 27.2108 47.3616 27.9118 47.3616 29.8731V30.2059C47.3595 30.2194 47.3604 30.2333 47.3641 30.2465C47.3678 30.2597 47.3743 30.2721 47.3831 30.2827C47.3919 30.2934 47.4028 30.3021 47.4152 30.3084C47.4277 30.3147 47.4413 30.3183 47.4552 30.3192H52.4543Z" fill="url(#paint8_linear_140_861)"></path><path d="M60.3059 30.0359C60.3059 27.4657 60.3059 27.1541 60.2554 26.6514C60.205 26.1487 60.0826 25.9433 59.6792 25.8301C59.5351 25.8301 59.3118 25.8301 59.1533 25.7876C58.9949 25.7451 58.8652 25.7097 58.8652 25.6106C58.8652 25.5114 58.9589 25.4689 59.2182 25.4689C60.1258 25.4689 60.8965 25.5185 61.6025 25.5185H66.1117C66.401 25.5179 66.6899 25.4966 66.9761 25.4548C67.0593 25.4225 67.1465 25.4011 67.2354 25.3911C67.3147 25.3911 67.3291 25.4548 67.3291 25.5327C67.3291 25.6106 67.3291 25.7663 67.2498 26.2407C67.2066 26.5523 67.1706 27.1046 67.1202 27.9188C67.1202 28.0463 67.0626 28.1383 66.9617 28.1383C66.8609 28.1383 66.8176 28.0604 66.8032 27.9188C66.8053 27.7342 66.7786 27.5503 66.724 27.3736C66.6448 27.0054 66.4359 26.8072 65.6651 26.7435C65.1393 26.6939 63.749 26.6656 63.2664 26.6656C63.1728 26.6656 63.1368 26.708 63.1368 26.8213V30.2838C63.1368 30.39 63.1368 30.4679 63.2664 30.4679C63.713 30.4679 65.0096 30.4679 65.5859 30.4679C66.371 30.4679 66.5799 30.39 66.7528 30.1067C66.8537 29.9651 66.8969 29.9014 66.9761 29.9014C67.0554 29.9014 67.077 29.9935 67.077 30.0926C67.077 30.1917 66.9977 30.8006 66.9473 31.4308C66.9473 31.7919 66.9473 32.5637 66.9473 32.7336C66.9473 32.9036 66.8969 33.031 66.8032 33.031C66.7096 33.031 66.6592 32.9248 66.6232 32.7832C66.5871 32.6416 66.6232 32.5425 66.5799 32.4221C66.5151 31.9619 66.2918 31.714 65.5066 31.6503C65.06 31.6503 63.7418 31.5866 63.252 31.5866C63.1656 31.5866 63.1512 31.6645 63.1512 31.7919V32.8753C63.1512 33.4134 63.1512 34.3409 63.1512 34.9357C63.1512 36.0403 63.3961 36.2881 65.1681 36.2881C65.6727 36.3105 66.1773 36.2458 66.6592 36.0969C67.1058 35.927 67.3003 35.5801 67.4443 34.8578C67.4443 34.6667 67.538 34.5746 67.6316 34.5746C67.7253 34.5746 67.7757 34.7304 67.7757 34.9216C67.7506 35.6352 67.6663 36.3456 67.5236 37.0457C67.4083 37.4493 67.3003 37.4706 66.7024 37.4706C64.4982 37.4706 63.2952 37.3714 61.6169 37.3714C60.8965 37.3714 60.1762 37.421 59.3118 37.421C59.0237 37.421 58.93 37.3714 58.93 37.2652C58.93 37.159 59.0093 37.1095 59.247 37.1095C59.4847 37.1095 59.5999 37.1095 59.7296 37.0457C60.1762 36.982 60.241 36.3802 60.2698 35.3889C60.2698 34.7587 60.3203 33.8311 60.3203 32.8611L60.3059 30.0359Z" fill="url(#paint9_linear_140_861)"></path><path d="M72.8036 37.3148C71.9824 37.3148 71.2333 37.3148 70.8659 37.3644C69.5837 37.4139 69.4252 37.8175 69.31 38.6389C69.31 38.8442 69.2668 39 69.1371 39C69.0074 39 68.957 38.9504 68.957 38.5893C68.957 37.3148 68.849 36.4014 68.849 36.0757C68.849 35.9128 68.9138 35.9128 69.0074 35.9128C69.401 35.9696 69.7982 35.998 70.196 35.9978C70.3184 35.9978 70.3833 35.9341 70.4769 35.7429L74.4459 26.1982C74.7989 25.4123 74.9285 25.2353 75.1663 25.2353C75.404 25.2353 75.4544 25.5043 75.5984 25.7734C76.1459 26.9488 78.5734 32.7549 79.9204 35.6863C79.9458 35.7585 79.9935 35.8211 80.0567 35.8655C80.1199 35.9099 80.1957 35.9339 80.2734 35.9341C80.7919 35.9462 81.3104 35.9106 81.8221 35.8279C81.9662 35.8279 82.0166 35.8279 81.9662 36.0615C81.81 36.8937 81.7185 37.7364 81.6924 38.5822C81.6924 38.8796 81.6132 38.9575 81.5196 38.9575C81.4259 38.9575 81.3395 38.8017 81.3395 38.5822C81.2963 37.7467 80.9433 37.4139 80.0645 37.3502C79.4522 37.3077 78.8615 37.2723 78.0476 37.2723L72.8036 37.3148ZM75.0222 36.1111C75.5845 36.1367 76.148 36.1201 76.7078 36.0615C76.8014 36.0615 76.8158 35.9978 76.751 35.8562C76.0811 34.1781 75.2527 32.0043 74.3667 29.866C74.3667 29.8023 74.3091 29.8023 74.273 29.866C72.2417 35.3251 71.9824 35.8279 71.9824 35.9553C71.9824 36.0828 72.0472 36.0474 72.1265 36.0615C72.7132 36.1122 73.3025 36.1287 73.8913 36.1111H75.0222Z" fill="url(#paint10_linear_140_861)"></path><path d="M84.0839 30.0359C84.0839 27.7206 84.0839 27.2816 84.0839 26.7789C84.0839 26.1345 83.8462 25.8796 83.3636 25.8301L82.7729 25.7876C82.5352 25.7876 82.4848 25.7097 82.4848 25.6247C82.4848 25.5397 82.6145 25.4689 82.8089 25.4689C83.7814 25.4689 84.581 25.5185 85.3661 25.5185C86.425 25.5185 87.3686 25.4689 87.9881 25.4689C91.3665 25.4689 92.0075 27.0125 92.0075 27.8905C92.0075 29.165 91.1143 30.0147 90.0555 30.5174C91.7338 31.0201 93.1601 32.0327 93.1601 33.9374C93.1601 35.6792 91.4961 37.4139 88.3123 37.4139C87.7216 37.4139 85.8343 37.3148 85.3517 37.3148C84.6314 37.3148 83.911 37.3644 83.0322 37.3644C82.8089 37.3644 82.6937 37.3148 82.6937 37.2086C82.6937 37.1024 82.7729 37.0528 83.0106 37.0528C83.1726 37.0403 83.3337 37.0191 83.4933 36.9891C83.7814 36.9395 83.9615 36.7059 84.0047 36.1182C84.0695 35.2543 84.1055 34.3409 84.1055 32.3584L84.0839 30.0359ZM86.85 32.7053C86.85 33.4629 86.85 34.5604 86.85 35.3676C86.85 35.8704 86.9508 36.0757 87.2678 36.2315C87.5914 36.4069 87.9574 36.4925 88.3267 36.4793C89.155 36.4793 90.1491 35.9128 90.1491 34.3551C90.1702 33.9093 90.0972 33.4641 89.9348 33.0473C89.7725 32.6306 89.5241 32.2514 89.2055 31.9335C88.7969 31.5662 88.2678 31.3551 87.7144 31.3388C87.4483 31.3174 87.1809 31.3174 86.9148 31.3388C86.85 31.3388 86.8212 31.3388 86.8212 31.445L86.85 32.7053ZM86.85 30.2059C86.85 30.3333 86.9148 30.3475 86.9941 30.3616C87.3282 30.4066 87.6652 30.4279 88.0025 30.4254C88.341 30.4492 88.6779 30.362 88.9606 30.1775C89.153 29.9791 89.3001 29.7425 89.392 29.4836C89.4839 29.2247 89.5186 28.9495 89.4936 28.6765C89.4936 27.4019 88.8525 26.3328 87.5847 26.3328C87.389 26.3271 87.1939 26.3559 87.0085 26.4177C86.9148 26.4177 86.85 26.4744 86.85 26.701V30.2059Z" fill="url(#paint11_linear_140_861)"></path><path d="M98.685 33.5692C100.01 32.0964 101.646 30.2059 102.33 29.4199C103.288 28.3366 103.965 27.579 104.815 26.6372C105.903 25.4406 106.256 25.2211 106.493 25.2211C106.731 25.2211 106.767 25.3769 106.767 26.3682C106.81 29.4836 106.767 32.5708 106.875 35.665C106.926 36.6563 107.005 36.8475 107.631 36.9749C107.711 36.9749 108.028 36.9749 108.143 37.0245C108.445 37.067 108.51 37.1024 108.51 37.1803C108.51 37.2582 108.395 37.336 108.143 37.336C107.516 37.336 105.262 37.336 104.844 37.2865C104.174 37.2865 103.403 37.336 102.827 37.336C102.575 37.336 102.445 37.2865 102.445 37.1803C102.445 37.0741 102.553 37.0528 102.827 37.0245C102.985 37.0245 103.086 37.0245 103.245 36.9749C103.835 36.9112 103.9 36.5643 103.965 35.5588C104.044 33.8736 104.008 31.2467 104.059 29.2783C103.547 29.8802 102.971 30.5387 102.121 31.5158C99.0668 34.957 97.5757 36.5784 96.9706 37.1307C96.3655 37.683 96.2935 37.6476 96.1855 37.6476C96.0774 37.6476 95.9117 37.3998 95.9117 36.9395C95.9117 34.8649 95.9622 30.9777 95.9117 27.7843C95.8613 26.2761 95.9117 25.9079 95.1914 25.8159C95.0473 25.8159 94.9177 25.8159 94.788 25.8159C94.6584 25.8159 94.4999 25.738 94.4999 25.6389C94.4999 25.5397 94.5791 25.4973 94.8384 25.4973C95.4003 25.4973 96.9994 25.5468 97.3812 25.5468C98.4545 25.5468 99.5422 25.4973 99.9744 25.4973C100.248 25.4973 100.356 25.5327 100.356 25.653C100.356 25.7734 100.277 25.7946 100.025 25.8159C99.7727 25.8371 99.6574 25.8159 99.4918 25.8159C98.8723 25.8938 98.7714 26.3186 98.7714 27.579L98.685 33.5692Z" fill="url(#paint12_linear_140_861)"></path><path d="M119.762 30.8785C120.612 30.1138 122.052 28.5986 123.126 27.4019C123.666 26.8072 124.005 26.3965 124.005 26.1628C124.005 25.9292 123.954 25.8655 123.479 25.7876C123.313 25.7522 123.205 25.7238 123.205 25.6106C123.205 25.4973 123.335 25.4689 123.508 25.4689C124.084 25.4689 124.422 25.5185 125.352 25.5185C126.281 25.5185 127.203 25.4689 127.426 25.4689C127.649 25.4689 127.83 25.5185 127.83 25.6247C127.83 25.7309 127.714 25.7522 127.462 25.7876C126.965 25.8439 126.485 25.9984 126.051 26.2418C125.616 26.4851 125.236 26.8123 124.934 27.2037C123.875 28.2445 122.355 29.8164 121.908 30.3192C122.261 30.8573 124.963 34.1923 126.18 35.5163C127.188 36.5855 127.657 36.8687 127.945 36.9324C128.126 36.9858 128.312 37.0237 128.499 37.0457C128.723 37.0457 128.809 37.0882 128.809 37.2015C128.809 37.3148 128.708 37.3573 128.391 37.3573H126.951C124.79 37.3573 124.228 37.244 123.349 36.2385C122.14 34.7961 121.022 33.2828 120 31.707C119.942 31.6007 119.841 31.4733 119.762 31.36V32.7761C119.762 34.0152 119.762 35.4809 119.841 36.1394C119.841 36.5501 119.971 36.9112 120.561 36.9608C120.77 36.9608 120.994 37.0033 121.202 37.0245C121.411 37.0457 121.519 37.0811 121.519 37.1803C121.519 37.2794 121.411 37.336 121.217 37.336C120.115 37.336 118.508 37.2865 118.336 37.2865C118.163 37.2865 116.564 37.336 116.031 37.336C115.764 37.336 115.649 37.336 115.649 37.1803C115.649 37.0245 115.793 37.0245 115.973 37.0245L116.448 36.9749C116.816 36.9254 116.917 36.5643 116.96 36.1111C117.025 35.4455 117.061 34.3126 117.061 32.7761V31.36C116.945 31.5158 116.801 31.707 116.722 31.799C115.829 33.0594 114.388 34.9924 113.394 36.1111C112.595 37.0245 112.033 37.3077 109.872 37.3077H108.337C108.049 37.3077 107.948 37.2582 107.948 37.1378C107.948 37.0174 108.114 36.9962 108.301 36.9962C108.525 36.9874 108.746 36.9444 108.957 36.8687C109.31 36.7554 109.713 36.3943 111.01 35.0419C112.306 33.6895 114.561 31.0272 115.008 30.4466C114.626 30.0076 112.926 28.2304 111.838 27.1258C111.075 26.3611 110.657 25.9292 109.951 25.8088C109.648 25.7592 109.49 25.7592 109.231 25.7309C108.971 25.7026 108.892 25.653 108.892 25.5681C108.892 25.4831 108.979 25.4123 109.267 25.4123C109.555 25.4123 110.498 25.4619 111.428 25.4619C112.357 25.4619 112.659 25.4123 113.264 25.4123C113.509 25.4123 113.589 25.476 113.589 25.5539C113.589 25.6318 113.473 25.7097 113.315 25.7451C112.948 25.823 112.832 25.9504 112.832 26.1062C112.832 26.262 113.142 26.7364 113.697 27.3311C115.217 28.9668 116.117 29.8943 117.046 30.7936V30.0359C117.046 27.5931 117.046 27.14 116.996 26.6372C116.945 26.1345 116.823 25.9292 116.47 25.8442C116.306 25.8134 116.14 25.7944 115.973 25.7876C115.764 25.7876 115.649 25.7238 115.649 25.6106C115.649 25.4973 115.75 25.4689 116.081 25.4689C116.722 25.4689 118.083 25.5185 118.242 25.5185C118.4 25.5185 120.244 25.4689 120.835 25.4689C121.109 25.4689 121.202 25.5327 121.202 25.6247C121.202 25.7168 121.123 25.7876 120.914 25.7876C120.705 25.7876 120.561 25.7876 120.403 25.8442C119.956 25.9292 119.855 26.177 119.827 26.6797C119.798 27.1824 119.776 27.5931 119.776 30.0359L119.762 30.8785Z" fill="url(#paint13_linear_140_861)"></path><path d="M132.54 33.5692C133.866 32.0964 135.501 30.2059 136.185 29.4199C137.151 28.3366 137.82 27.579 138.67 26.6372C139.758 25.4406 140.111 25.2211 140.349 25.2211C140.587 25.2211 140.623 25.3769 140.623 26.3682C140.666 29.4836 140.623 32.5708 140.731 35.665C140.781 36.6563 140.86 36.8475 141.487 36.9749C141.566 36.9749 141.883 36.9749 141.998 37.0245C142.301 37.067 142.366 37.1024 142.366 37.1803C142.366 37.2582 142.25 37.336 141.998 37.336C141.372 37.336 139.117 37.336 138.699 37.2865C138.029 37.2865 137.259 37.336 136.682 37.336C136.43 37.336 136.301 37.2865 136.301 37.1803C136.301 37.0741 136.409 37.0528 136.682 37.0245C136.841 37.0245 136.942 37.0245 137.1 36.9749C137.691 36.9112 137.756 36.5643 137.82 35.5588C137.9 33.8736 137.864 31.2467 137.914 29.2783C137.403 29.8802 136.826 30.5387 135.976 31.5158C132.922 34.957 131.431 36.5784 130.826 37.1307C130.221 37.683 130.149 37.6476 130.041 37.6476C129.933 37.6476 129.767 37.3998 129.767 36.9395C129.767 34.8649 129.818 30.9777 129.767 27.7843C129.717 26.2761 129.767 25.9079 129.047 25.8159C128.903 25.8159 128.773 25.8159 128.643 25.8159C128.514 25.8159 128.355 25.738 128.355 25.6389C128.355 25.5397 128.435 25.4973 128.694 25.4973C129.256 25.4973 130.855 25.5468 131.237 25.5468C132.31 25.5468 133.398 25.4973 133.83 25.4973C134.104 25.4973 134.219 25.5327 134.219 25.653C134.219 25.7734 134.132 25.7946 133.88 25.8159C133.628 25.8371 133.513 25.8159 133.354 25.8159C132.728 25.8938 132.634 26.3186 132.634 27.579L132.54 33.5692Z" fill="url(#paint14_linear_140_861)"></path><path d="M157.954 35.3322C158.083 36.3589 158.242 36.7484 158.775 36.9112C159.072 36.9849 159.376 37.0323 159.682 37.0528C159.891 37.0528 159.992 37.0953 159.992 37.2086C159.992 37.3219 159.863 37.3644 159.603 37.3644C158.278 37.3644 156.981 37.3644 155.159 37.2723C154.849 37.2723 154.784 37.159 154.784 37.0811C154.784 37.0033 154.849 36.9537 154.964 36.9254C155.216 36.8262 155.238 36.7342 155.173 36.0261L154.597 30.3616L151.269 36.4651C150.837 37.2723 150.743 37.3644 150.614 37.3644C150.484 37.3644 150.34 37.2086 149.893 36.5147C149.331 35.6367 148.359 33.8382 147.732 32.8328C147.458 32.3796 146.76 31.0839 146.457 30.5528L145.989 34.9853C145.945 35.404 145.923 35.8247 145.924 36.2456C145.924 36.7059 146.083 36.89 146.486 36.9537C146.681 36.9938 146.878 37.0222 147.077 37.0387C147.314 37.0387 147.365 37.0811 147.365 37.1803C147.365 37.2794 147.3 37.3502 147.048 37.3502C146.328 37.3502 145.463 37.3006 144.981 37.3006C144.498 37.3006 143.734 37.3502 143.144 37.3502C142.978 37.3502 142.791 37.3502 142.791 37.1944C142.791 37.0387 142.884 37.0387 143.108 37.0387C143.331 37.0387 143.41 37.0387 143.59 36.9891C144.051 36.897 144.21 36.5289 144.375 35.4951L145.816 25.8159C145.881 25.3486 145.989 25.207 146.155 25.207C146.32 25.207 146.443 25.3627 146.774 25.8513L151.355 33.3851L155.735 25.7734C155.994 25.3627 156.124 25.207 156.283 25.207C156.441 25.207 156.542 25.4265 156.585 25.8159L157.954 35.3322Z" fill="url(#paint15_linear_140_861)"></path><path d="M160.669 31.4662C160.669 28.3153 162.83 25.2494 167.52 25.2494C171.589 25.2494 174.132 27.9259 174.132 31.1193C174.132 34.787 171.604 37.5839 167.412 37.5839C162.686 37.5839 160.669 34.2489 160.669 31.4662ZM170.934 31.8132C170.934 29.2004 169.825 26.2266 166.994 26.2266C165.553 26.2266 163.875 27.0267 163.875 30.7582C163.875 33.732 165.135 36.5784 167.887 36.5784C168.881 36.5784 170.934 36.1536 170.934 31.8132Z" fill="url(#paint16_linear_140_861)"></path><path d="M178.065 35.8562C177.391 35.2878 176.858 34.5746 176.508 33.7717C176.158 32.9688 176.001 32.0976 176.048 31.2255C176.052 30.4093 176.23 29.6029 176.571 28.8588C176.913 28.1147 177.409 27.4495 178.029 26.9063C179.412 25.7592 181.011 25.2848 183.331 25.2848C184.091 25.2865 184.85 25.3504 185.6 25.476C186.124 25.571 186.653 25.6395 187.185 25.6814C187.365 25.6814 187.365 25.7876 187.365 25.8796C187.365 25.9717 187.285 26.354 187.285 26.9063C187.285 27.4586 187.285 28.3578 187.235 28.7473C187.235 28.9809 187.185 29.1225 187.041 29.1225C186.896 29.1225 186.868 29.0163 186.853 28.7968C186.846 28.2264 186.628 27.678 186.241 27.2533C185.686 26.6726 184.563 26.262 183.007 26.262C182.155 26.2146 181.316 26.4852 180.658 27.0196C179.679 27.848 179.218 29.3137 179.218 30.9989C179.218 34.2418 181.011 36.4085 183.698 36.4085C185.016 36.4085 185.859 36.3023 186.457 35.6084C186.717 35.304 186.898 34.9418 186.983 34.5534C187.062 34.2206 187.113 34.1144 187.235 34.1144C187.357 34.1144 187.365 34.2701 187.365 34.3976C187.295 35.1991 187.177 35.9958 187.012 36.7838C187.003 36.8938 186.959 36.9982 186.885 37.0812C186.81 37.1642 186.711 37.2213 186.601 37.244C185.709 37.5151 184.776 37.6372 183.842 37.6051C181.797 37.5839 179.744 37.2369 178.065 35.8562Z" fill="url(#paint17_linear_140_861)"></path><path d="M195.843 32.8045C195.843 34.0294 195.843 35.4951 195.922 36.1536C195.922 36.5643 196.066 36.8616 196.549 36.9679C196.751 36.9679 196.945 37.0174 197.233 37.0528C197.521 37.0882 197.557 37.1095 197.557 37.2228C197.557 37.336 197.471 37.3644 197.183 37.3644C196.095 37.3644 194.546 37.3148 194.301 37.3148C194.057 37.3148 192.479 37.3644 191.953 37.3644C191.694 37.3644 191.586 37.3644 191.586 37.2086C191.586 37.0528 191.708 37.0528 191.903 37.0528L192.414 36.9891C192.767 36.9254 192.882 36.5784 192.926 36.1182C192.99 35.4597 193.026 34.3268 193.026 32.8045V26.6372C192.4 26.6372 191.406 26.6372 190.606 26.6372C189.807 26.6372 189.36 26.8921 189.165 27.4374C189.11 27.5547 189.062 27.6753 189.021 27.7985C188.985 27.9259 188.942 28.0534 188.827 28.0534C188.712 28.0534 188.683 27.9259 188.697 27.7418C188.762 27.0904 188.942 26.2478 189.05 25.6176C189.05 25.384 189.129 25.2282 189.23 25.2282C189.413 25.2572 189.593 25.2974 189.771 25.3486C190.36 25.4291 190.955 25.4669 191.55 25.4619H198.508C198.845 25.4643 199.182 25.443 199.517 25.3981C199.68 25.3565 199.846 25.3257 200.014 25.3061C200.158 25.3061 200.172 25.3981 200.172 25.7876C200.172 26.0141 200.078 27.4728 200.064 27.8693C200.064 28.0888 199.999 28.1808 199.906 28.1808C199.812 28.1808 199.74 28.0888 199.725 27.8976C199.711 27.7064 199.725 27.6639 199.725 27.586C199.661 27.0975 199.423 26.7222 198.479 26.6585C197.946 26.6089 197.118 26.5806 195.901 26.5806L195.843 32.8045Z" fill="url(#paint18_linear_140_861)"></path><path d="M202.945 30.0359C202.945 27.579 202.945 27.1187 202.909 26.616C202.923 26.4433 202.873 26.2714 202.766 26.1331C202.66 25.9948 202.506 25.8996 202.333 25.8655C202.151 25.8256 201.965 25.7995 201.778 25.7876C201.584 25.7876 201.454 25.738 201.454 25.6106C201.454 25.4831 201.584 25.4689 201.887 25.4689C202.513 25.4689 204.141 25.5185 204.206 25.5185C204.271 25.5185 206.302 25.4689 206.85 25.4689C207.138 25.4689 207.231 25.5185 207.231 25.6106C207.231 25.7026 207.058 25.7663 206.85 25.8017C206.678 25.8109 206.507 25.8322 206.338 25.8655C205.906 25.9433 205.791 26.2124 205.762 26.7151C205.733 27.2179 205.711 27.848 205.711 30.2554C205.711 30.3192 205.711 30.3333 205.791 30.3333H206.115C208.146 30.3333 209.392 30.567 210.242 31.006C210.781 31.2619 211.234 31.6652 211.546 32.1675C211.857 32.6699 212.015 33.25 212 33.8382C212 35.573 210.559 37.3785 207.073 37.3785C206.482 37.3785 204.494 37.3006 204.112 37.3006C203.889 37.3006 202.384 37.3502 201.887 37.3502C201.649 37.3502 201.505 37.3502 201.505 37.1944C201.505 37.0387 201.649 37.0528 201.807 37.0387C201.966 37.0245 202.11 37.0387 202.319 36.9749C202.643 36.9254 202.801 36.628 202.845 36.0899C202.895 35.4314 202.945 34.3905 202.945 32.7903V30.0359ZM205.711 32.6912C205.711 33.555 205.711 34.9711 205.762 35.6367C205.763 35.761 205.798 35.8826 205.863 35.9895C205.927 36.0964 206.019 36.1847 206.129 36.2456C206.43 36.405 206.767 36.4854 207.109 36.4793C208.146 36.4793 209.025 35.7712 209.025 34.2985C209.083 33.8734 209.039 33.4408 208.897 33.0353C208.755 32.6298 208.519 32.2625 208.207 31.9626C207.895 31.6628 207.516 31.4387 207.1 31.3083C206.684 31.1779 206.243 31.1447 205.812 31.2113C205.747 31.2113 205.711 31.2467 205.711 31.3246V32.6912Z" fill="url(#paint19_linear_140_861)"></path><path d="M22.6329 4.00758L18.8511 0.070758C18.8229 0.0424452 18.7867 0.0230939 18.7472 0.0152015C18.7077 0.00730912 18.6667 0.011238 18.6295 0.0264811C18.5923 0.0417242 18.5606 0.0675818 18.5384 0.100717C18.5163 0.133851 18.5048 0.172742 18.5054 0.21237V32.0185H22.6329V4.00758Z" fill="url(#paint20_linear_140_861)"></path><path d="M28.345 16.7812H24.2175V20.7393V24.6974H28.345V16.7812Z" fill="url(#paint21_linear_140_861)"></path><path d="M4.12751 34.1641V21.1074C4.12292 18.4343 5.17698 15.8644 7.06646 13.9419L11.2588 9.6935V32.0187H15.3863V0.205481C15.3909 0.16513 15.3824 0.124363 15.3619 0.0890911C15.3414 0.053819 15.3101 0.025874 15.2724 0.0093066C15.2346 -0.00726078 15.1925 -0.0115896 15.1521 -0.00305241C15.1117 0.00548478 15.0752 0.0264444 15.0477 0.0567883L2.96058 12.2071C1.05624 14.1333 -0.00627841 16.7151 2.79124e-05 19.401V38.3346H17.0286V34.1641H4.12751Z" fill="url(#paint22_linear_140_861)"></path><path d="M29.9369 11.0601V34.1641L17.0286 34.1641V38.3346L34.0644 38.3346V15.1102L29.9369 11.0601Z" fill="url(#paint23_linear_140_861)"></path></g><defs><linearGradient id="paint0_linear_140_861" x1="41.5612" y1="25.1948" x2="41.9471" y2="43.6783" gradientUnits="userSpaceOnUse"><stop stop-color="#FFEFCC"></stop><stop offset="1" stop-color="#C6A55B"></stop></linearGradient><linearGradient id="paint1_linear_140_861" x1="41.5612" y1="25.1948" x2="41.9471" y2="43.6783" gradientUnits="userSpaceOnUse"><stop stop-color="#FFEFCC"></stop><stop offset="1" stop-color="#C6A55B"></stop></linearGradient><linearGradient id="paint2_linear_140_861" x1="41.5612" y1="25.1948" x2="41.9471" y2="43.6783" gradientUnits="userSpaceOnUse"><stop stop-color="#FFEFCC"></stop><stop offset="1" stop-color="#C6A55B"></stop></linearGradient><linearGradient id="paint3_linear_140_861" x1="41.5612" y1="25.1948" x2="41.9471" y2="43.6783" gradientUnits="userSpaceOnUse"><stop stop-color="#FFEFCC"></stop><stop offset="1" stop-color="#C6A55B"></stop></linearGradient><linearGradient id="paint4_linear_140_861" x1="41.5612" y1="25.1948" x2="41.9471" y2="43.6783" gradientUnits="userSpaceOnUse"><stop stop-color="#FFEFCC"></stop><stop offset="1" stop-color="#C6A55B"></stop></linearGradient><linearGradient id="paint5_linear_140_861" x1="41.5612" y1="25.1948" x2="41.9471" y2="43.6783" gradientUnits="userSpaceOnUse"><stop stop-color="#FFEFCC"></stop><stop offset="1" stop-color="#C6A55B"></stop></linearGradient><linearGradient id="paint6_linear_140_861" x1="41.5612" y1="25.1948" x2="41.9471" y2="43.6783" gradientUnits="userSpaceOnUse"><stop stop-color="#FFEFCC"></stop><stop offset="1" stop-color="#C6A55B"></stop></linearGradient><linearGradient id="paint7_linear_140_861" x1="41.5612" y1="25.1948" x2="41.9471" y2="43.6783" gradientUnits="userSpaceOnUse"><stop stop-color="#FFEFCC"></stop><stop offset="1" stop-color="#C6A55B"></stop></linearGradient><linearGradient id="paint8_linear_140_861" x1="41.5612" y1="25.1948" x2="41.9471" y2="43.6783" gradientUnits="userSpaceOnUse"><stop stop-color="#FFEFCC"></stop><stop offset="1" stop-color="#C6A55B"></stop></linearGradient><linearGradient id="paint9_linear_140_861" x1="41.5612" y1="25.1948" x2="41.9471" y2="43.6783" gradientUnits="userSpaceOnUse"><stop stop-color="#FFEFCC"></stop><stop offset="1" stop-color="#C6A55B"></stop></linearGradient><linearGradient id="paint10_linear_140_861" x1="41.5612" y1="25.1948" x2="41.9471" y2="43.6783" gradientUnits="userSpaceOnUse"><stop stop-color="#FFEFCC"></stop><stop offset="1" stop-color="#C6A55B"></stop></linearGradient><linearGradient id="paint11_linear_140_861" x1="41.5612" y1="25.1948" x2="41.9471" y2="43.6783" gradientUnits="userSpaceOnUse"><stop stop-color="#FFEFCC"></stop><stop offset="1" stop-color="#C6A55B"></stop></linearGradient><linearGradient id="paint12_linear_140_861" x1="41.5612" y1="25.1948" x2="41.9471" y2="43.6783" gradientUnits="userSpaceOnUse"><stop stop-color="#FFEFCC"></stop><stop offset="1" stop-color="#C6A55B"></stop></linearGradient><linearGradient id="paint13_linear_140_861" x1="41.5612" y1="25.1948" x2="41.9471" y2="43.6783" gradientUnits="userSpaceOnUse"><stop stop-color="#FFEFCC"></stop><stop offset="1" stop-color="#C6A55B"></stop></linearGradient><linearGradient id="paint14_linear_140_861" x1="41.5612" y1="25.1948" x2="41.9471" y2="43.6783" gradientUnits="userSpaceOnUse"><stop stop-color="#FFEFCC"></stop><stop offset="1" stop-color="#C6A55B"></stop></linearGradient><linearGradient id="paint15_linear_140_861" x1="41.5612" y1="25.1948" x2="41.9471" y2="43.6783" gradientUnits="userSpaceOnUse"><stop stop-color="#FFEFCC"></stop><stop offset="1" stop-color="#C6A55B"></stop></linearGradient><linearGradient id="paint16_linear_140_861" x1="41.5612" y1="25.1948" x2="41.9471" y2="43.6783" gradientUnits="userSpaceOnUse"><stop stop-color="#FFEFCC"></stop><stop offset="1" stop-color="#C6A55B"></stop></linearGradient><linearGradient id="paint17_linear_140_861" x1="41.5612" y1="25.1948" x2="41.9471" y2="43.6783" gradientUnits="userSpaceOnUse"><stop stop-color="#FFEFCC"></stop><stop offset="1" stop-color="#C6A55B"></stop></linearGradient><linearGradient id="paint18_linear_140_861" x1="41.5612" y1="25.1948" x2="41.9471" y2="43.6783" gradientUnits="userSpaceOnUse"><stop stop-color="#FFEFCC"></stop><stop offset="1" stop-color="#C6A55B"></stop></linearGradient><linearGradient id="paint19_linear_140_861" x1="41.5612" y1="25.1948" x2="41.9471" y2="43.6783" gradientUnits="userSpaceOnUse"><stop stop-color="#FFEFCC"></stop><stop offset="1" stop-color="#C6A55B"></stop></linearGradient><linearGradient id="paint20_linear_140_861" x1="18.4742" y1="19.5946" x2="26.5188" y2="30.0408" gradientUnits="userSpaceOnUse"><stop stop-color="#FFEFCC"></stop><stop offset="1" stop-color="#C6A55B"></stop></linearGradient><linearGradient id="paint21_linear_140_861" x1="24.1864" y1="21.6247" x2="24.9428" y2="25.5964" gradientUnits="userSpaceOnUse"><stop stop-color="#FFEFCC"></stop><stop offset="1" stop-color="#C6A55B"></stop></linearGradient><linearGradient id="paint22_linear_140_861" x1="-0.25709" y1="23.4519" x2="1.94372" y2="43.1407" gradientUnits="userSpaceOnUse"><stop stop-color="#FFEFCC"></stop><stop offset="1" stop-color="#C6A55B"></stop></linearGradient><linearGradient id="paint23_linear_140_861" x1="-0.25709" y1="23.4519" x2="1.94372" y2="43.1407" gradientUnits="userSpaceOnUse"><stop stop-color="#FFEFCC"></stop><stop offset="1" stop-color="#C6A55B"></stop></linearGradient><clipPath id="clip0_140_861"><rect width="212" height="39" fill="white"></rect></clipPath></defs></svg> 